<?xml version="1.0" encoding="UTF-8" standalone="no"?>
<!DOCTYPE svg PUBLIC "-//W3C//DTD SVG 1.1//EN"
 "http://www.w3.org/Graphics/SVG/1.1/DTD/svg11.dtd">
<!-- Generated by graphviz version 2.40.1 (20161225.0304)
 -->
<!-- Title: inheritance05abf017cd Pages: 1 -->
<svg width="192pt" height="249pt"
 viewBox="0.00 0.00 192.00 249.00" xmlns="http://www.w3.org/2000/svg" xmlns:xlink="http://www.w3.org/1999/xlink">
<g id="graph0" class="graph" transform="scale(1 1) rotate(0) translate(4 245)">
<title>inheritance05abf017cd</title>
<polygon fill="#ffffff" stroke="transparent" points="-4,4 -4,-245 188,-245 188,4 -4,4"/>
<!-- Complex_Line_fit -->
<g id="node1" class="node">
<title>Complex_Line_fit</title>
<g id="a_node1"><a xlink:href="../api/Spec_pipeline.Complex_Line_fit.html#Spec_pipeline.Complex_Line_fit" xlink:title="Flexible method to fit emission lines. Lines are defined in the multi_lines.txt file, and can combine many emission lines to be fit at the same time." target="_top">
<polygon fill="none" stroke="#000000" stroke-width=".5" points="184,-56 90,-56 90,-37 184,-37 184,-56"/>
<text text-anchor="middle" x="137" y="-44" font-family="Vera Sans, DejaVu Sans, Liberation Sans, Arial, Helvetica, sans" font-size="10.00" fill="#000000">Complex_Line_fit</text>
</a>
</g>
</g>
<!-- Line_fit -->
<g id="node2" class="node">
<title>Line_fit</title>
<g id="a_node2"><a xlink:href="../Line_Fitter/line_class.html#Spec_pipeline.Line_Fitter.line_class.Line_fit" xlink:title="Line_fit" target="_top">
<polygon fill="none" stroke="#000000" stroke-width=".5" points="54,-37 0,-37 0,-18 54,-18 54,-37"/>
<text text-anchor="middle" x="27" y="-25" font-family="Vera Sans, DejaVu Sans, Liberation Sans, Arial, Helvetica, sans" font-size="10.00" fill="#000000">Line_fit</text>
</a>
</g>
</g>
<!-- Line_fit&#45;&gt;Complex_Line_fit -->
<g id="edge1" class="edge">
<title>Line_fit&#45;&gt;Complex_Line_fit</title>
<path fill="none" stroke="#000000" stroke-width=".5" d="M54.191,-32.1966C63.4857,-33.8021 74.2183,-35.6559 84.8115,-37.4856"/>
<polygon fill="#000000" stroke="#000000" stroke-width=".5" points="84.7687,-39.2541 89.9936,-38.3807 85.3645,-35.8051 84.7687,-39.2541"/>
</g>
<!-- Multi_Line_fit -->
<g id="node8" class="node">
<title>Multi_Line_fit</title>
<g id="a_node8"><a xlink:href="../api/Spec_pipeline.Multi_Line_fit.html#Spec_pipeline.Multi_Line_fit" xlink:title="Main method to fit emission lines. Lines are defined in the multi_lines.txt file, and can combine many emission lines to be fit at the same time." target="_top">
<polygon fill="none" stroke="#000000" stroke-width=".5" points="174.5,-19 99.5,-19 99.5,0 174.5,0 174.5,-19"/>
<text text-anchor="middle" x="137" y="-7" font-family="Vera Sans, DejaVu Sans, Liberation Sans, Arial, Helvetica, sans" font-size="10.00" fill="#000000">Multi_Line_fit</text>
</a>
</g>
</g>
<!-- Line_fit&#45;&gt;Multi_Line_fit -->
<g id="edge6" class="edge">
<title>Line_fit&#45;&gt;Multi_Line_fit</title>
<path fill="none" stroke="#000000" stroke-width=".5" d="M54.191,-23.0506C66.2105,-21.0837 80.6345,-18.7234 94.0521,-16.5278"/>
<polygon fill="#000000" stroke="#000000" stroke-width=".5" points="94.6824,-18.198 99.3342,-15.6635 94.1172,-14.744 94.6824,-18.198"/>
</g>
<!-- DBSP_Spec -->
<g id="node3" class="node">
<title>DBSP_Spec</title>
<g id="a_node3"><a xlink:href="../api/Spec_pipeline.DBSP_Spec.html#Spec_pipeline.DBSP_Spec" xlink:title="Module that reads a DBSP spectrum and returns a spec object." target="_top">
<polygon fill="none" stroke="#000000" stroke-width=".5" points="173,-241 101,-241 101,-222 173,-222 173,-241"/>
<text text-anchor="middle" x="137" y="-229" font-family="Vera Sans, DejaVu Sans, Liberation Sans, Arial, Helvetica, sans" font-size="10.00" fill="#000000">DBSP_Spec</text>
</a>
</g>
</g>
<!-- Spec -->
<g id="node4" class="node">
<title>Spec</title>
<g id="a_node4"><a xlink:href="../Spec_Reader/spec_class.html#Spec_pipeline.Spec_Reader.Spec.Spec" xlink:title="Superclass for spectrum objects. Subclasses for different instruments have been created, and it is recommended to use those as a template for setting up a new instrument rather than trying to create directly as spec object." target="_top">
<polygon fill="none" stroke="#000000" stroke-width=".5" points="54,-167 0,-167 0,-148 54,-148 54,-167"/>
<text text-anchor="middle" x="27" y="-155" font-family="Vera Sans, DejaVu Sans, Liberation Sans, Arial, Helvetica, sans" font-size="10.00" fill="#000000">Spec</text>
</a>
</g>
</g>
<!-- Spec&#45;&gt;DBSP_Spec -->
<g id="edge2" class="edge">
<title>Spec&#45;&gt;DBSP_Spec</title>
<path fill="none" stroke="#000000" stroke-width=".5" d="M35.9505,-167.4081C47.446,-179.6406 68.4918,-200.4256 90,-213.5 93.8382,-215.8332 98.0301,-217.9551 102.2789,-219.8566"/>
<polygon fill="#000000" stroke="#000000" stroke-width=".5" points="101.6123,-221.4748 106.8976,-221.833 102.9892,-218.257 101.6123,-221.4748"/>
</g>
<!-- DEIMOS_Spec -->
<g id="node5" class="node">
<title>DEIMOS_Spec</title>
<g id="a_node5"><a xlink:href="../api/Spec_pipeline.DEIMOS_Spec.html#Spec_pipeline.DEIMOS_Spec" xlink:title="Module that read an DEIMOS spectrum and returns a spec object." target="_top">
<polygon fill="none" stroke="#000000" stroke-width=".5" points="179,-204 95,-204 95,-185 179,-185 179,-204"/>
<text text-anchor="middle" x="137" y="-192" font-family="Vera Sans, DejaVu Sans, Liberation Sans, Arial, Helvetica, sans" font-size="10.00" fill="#000000">DEIMOS_Spec</text>
</a>
</g>
</g>
<!-- Spec&#45;&gt;DEIMOS_Spec -->
<g id="edge3" class="edge">
<title>Spec&#45;&gt;DEIMOS_Spec</title>
<path fill="none" stroke="#000000" stroke-width=".5" d="M54.191,-166.6461C69.1818,-171.6884 87.9129,-177.9889 103.7669,-183.3216"/>
<polygon fill="#000000" stroke="#000000" stroke-width=".5" points="103.2903,-185.0076 108.5874,-184.943 104.4062,-181.6902 103.2903,-185.0076"/>
</g>
<!-- GMOS_Spec -->
<g id="node6" class="node">
<title>GMOS_Spec</title>
<g id="a_node6"><a xlink:href="../api/Spec_pipeline.GMOS_Spec.html#Spec_pipeline.GMOS_Spec" xlink:title="Module that read a GMOS spectrum and returns a spec object." target="_top">
<polygon fill="none" stroke="#000000" stroke-width=".5" points="174.5,-167 99.5,-167 99.5,-148 174.5,-148 174.5,-167"/>
<text text-anchor="middle" x="137" y="-155" font-family="Vera Sans, DejaVu Sans, Liberation Sans, Arial, Helvetica, sans" font-size="10.00" fill="#000000">GMOS_Spec</text>
</a>
</g>
</g>
<!-- Spec&#45;&gt;GMOS_Spec -->
<g id="edge4" class="edge">
<title>Spec&#45;&gt;GMOS_Spec</title>
<path fill="none" stroke="#000000" stroke-width=".5" d="M54.191,-157.5C66.2105,-157.5 80.6345,-157.5 94.0521,-157.5"/>
<polygon fill="#000000" stroke="#000000" stroke-width=".5" points="94.3342,-159.2501 99.3342,-157.5 94.3342,-155.7501 94.3342,-159.2501"/>
</g>
<!-- LRIS_Spec -->
<g id="node7" class="node">
<title>LRIS_Spec</title>
<g id="a_node7"><a xlink:href="../api/Spec_pipeline.LRIS_Spec.html#Spec_pipeline.LRIS_Spec" xlink:title="Module that reads an LRIS spectrum and returns a spec object." target="_top">
<polygon fill="none" stroke="#000000" stroke-width=".5" points="170.5,-130 103.5,-130 103.5,-111 170.5,-111 170.5,-130"/>
<text text-anchor="middle" x="137" y="-118" font-family="Vera Sans, DejaVu Sans, Liberation Sans, Arial, Helvetica, sans" font-size="10.00" fill="#000000">LRIS_Spec</text>
</a>
</g>
</g>
<!-- Spec&#45;&gt;LRIS_Spec -->
<g id="edge5" class="edge">
<title>Spec&#45;&gt;LRIS_Spec</title>
<path fill="none" stroke="#000000" stroke-width=".5" d="M54.191,-148.3539C69.1818,-143.3116 87.9129,-137.0111 103.7669,-131.6784"/>
<polygon fill="#000000" stroke="#000000" stroke-width=".5" points="104.4062,-133.3098 108.5874,-130.057 103.2903,-129.9924 104.4062,-133.3098"/>
</g>
<!-- SDSS_Spec -->
<g id="node9" class="node">
<title>SDSS_Spec</title>
<g id="a_node9"><a xlink:href="../api/Spec_pipeline.SDSS_Spec.html#Spec_pipeline.SDSS_Spec" xlink:title="Module that read an SDSS spectrum and returns a spec object." target="_top">
<polygon fill="none" stroke="#000000" stroke-width=".5" points="173,-93 101,-93 101,-74 173,-74 173,-93"/>
<text text-anchor="middle" x="137" y="-81" font-family="Vera Sans, DejaVu Sans, Liberation Sans, Arial, Helvetica, sans" font-size="10.00" fill="#000000">SDSS_Spec</text>
</a>
</g>
</g>
<!-- Spec&#45;&gt;SDSS_Spec -->
<g id="edge7" class="edge">
<title>Spec&#45;&gt;SDSS_Spec</title>
<path fill="none" stroke="#000000" stroke-width=".5" d="M36.0249,-147.8437C47.5973,-135.907 68.7222,-115.573 90,-102.5 94.3869,-99.8047 99.2231,-97.3491 104.0743,-95.1643"/>
<polygon fill="#000000" stroke="#000000" stroke-width=".5" points="105.0199,-96.6621 108.9144,-93.071 103.6305,-93.4497 105.0199,-96.6621"/>
</g>
</g>
</svg>
